<?xml version="1.0" standalone="no"?><!DOCTYPE svg PUBLIC "-//W3C//DTD SVG 1.1//EN" "http://www.w3.org/Graphics/SVG/1.1/DTD/svg11.dtd"><svg t="1558844392252" class="icon" style="" viewBox="0 0 1024 1024" version="1.1" xmlns="http://www.w3.org/2000/svg" p-id="9812" xmlns:xlink="http://www.w3.org/1999/xlink" width="200" height="200"><defs><style type="text/css"></style></defs><path d="M513.652405 117.787423c-16.209027 0-29.350001 13.139017-29.350001 29.35v733.751974c0 16.210984 13.140974 29.350001 29.350001 29.35s29.350001-13.139017 29.350001-29.35V147.137423c0-16.209027-13.140974-29.350001-29.350001-29.35zM352.769398 248.829306h-0.039133c-0.397203-15.86074-13.352294-28.604511-29.310868-28.604511s-28.913664 12.741814-29.310867 28.604511h-0.025437v0.48134c-0.001957 0.08805-0.013697 0.174143-0.013696 0.26415s0.01174 0.1761 0.013696 0.26415V778.459851c0 16.210984 13.140974 29.350001 29.350001 29.350001s29.350001-13.139017 29.350001-29.350001c0-0.090007-0.013697-0.1761-0.013697-0.266107V248.829306zM733.22563 248.829306h-0.039133c-0.397203-15.86074-13.352294-28.604511-29.310868-28.604511s-28.913664 12.741814-29.310867 28.604511h-0.025437v0.48134c-0.001957 0.08805-0.013697 0.174143-0.013696 0.26415s0.01174 0.1761 0.013696 0.26415V778.459851c0 16.210984 13.140974 29.350001 29.350001 29.350001s29.350001-13.139017 29.350001-29.350001c0-0.090007-0.013697-0.1761-0.013697-0.266107V248.829306zM133.090513 337.436958c-16.209027 0-29.350001 13.139017-29.350001 29.35v294.145707c0 16.210984 13.140974 29.350001 29.350001 29.350001s29.350001-13.139017 29.350001-29.350001v-294.145707c0-16.210984-13.140974-29.350001-29.350001-29.35zM894.092984 337.436958c-16.20707 0-29.350001 13.139017-29.350001 29.35v294.145707c0 16.210984 13.14293 29.350001 29.350001 29.350001 16.210984 0 29.350001-13.139017 29.35-29.350001v-294.145707c0-16.210984-13.139017-29.350001-29.35-29.35z" fill="#d81e06" p-id="9813"></path></svg>